<?xml version="1.0" standalone="no"?><!DOCTYPE svg PUBLIC "-//W3C//DTD SVG 1.1//EN" "http://www.w3.org/Graphics/SVG/1.1/DTD/svg11.dtd"><svg t="1717955803733" class="icon" viewBox="0 0 1024 1024" version="1.1" xmlns="http://www.w3.org/2000/svg" p-id="2624" xmlns:xlink="http://www.w3.org/1999/xlink" width="200" height="200"><path d="M496.46 505.46v165.78H247.78C156.22 671.24 82 597.02 82 505.46s74.22-165.79 165.78-165.79 165.79 74.23 165.79 165.79h82.89z" fill="#C3D2FB" p-id="2625"></path><path d="M807.3 381.12c0 93.99-44.69 177.53-113.98 230.55v59.57H517.18c-160.23 0-290.12-129.89-290.12-290.12S356.95 91 517.18 91 807.3 220.89 807.3 381.12z" fill="#7094F3" p-id="2626"></path><path d="M714.05 443.29m-227.95 0a227.95 227.95 0 1 0 455.9 0 227.95 227.95 0 1 0-455.9 0Z" fill="#386BF3" p-id="2627"></path><path d="M297.95 758.49h87.25v130.88h-87.25zM472.46 758.49h87.25V933h-87.25zM646.97 758.49h87.25v130.88h-87.25z" fill="#3D4265" p-id="2628"></path></svg>