<?xml version="1.0" standalone="no"?><!DOCTYPE svg PUBLIC "-//W3C//DTD SVG 1.1//EN" "http://www.w3.org/Graphics/SVG/1.1/DTD/svg11.dtd"><svg height="1024" node-id="1" sillyvg="true" template-height="1024" template-width="1024" version="1.1" viewBox="0 0 1024 1024" width="1024" xmlns="http://www.w3.org/2000/svg" xmlns:xlink="http://www.w3.org/1999/xlink"><defs node-id="88"></defs><g node-id="318"><g node-id="339"><g node-id="360"><path d="M 522.60 843.30 L 531.80 757.70 L 139.80 731.30 L 149.40 759.30 L 150.05 774.76 L 147.25 788.26 L 141.13 800.32 L 131.40 811.30 L 522.60 843.30 Z" fill="#e5e5e5" fill-rule="nonzero" group-id="1,22,43" node-id="96" stroke="none" target-height="112" target-width="400.40002" target-x="131.40002" target-y="731.3"></path></g></g></g><g node-id="319"><g node-id="340"><g node-id="361"><path d="M 527.40 810.90 L 526.60 753.30 L 139.40 731.30 L 144.59 738.91 L 146.20 746.50 L 251.10 750.50 L 335.55 757.79 L 402.48 767.62 L 454.60 779.30 L 490.88 790.89 L 513.91 801.44 L 527.40 810.90 Z" fill="#cecdcc" fill-rule="nonzero" group-id="2,23,44" node-id="107" stroke="none" target-height="79.599976" target-width="388" target-x="139.40002" target-y="731.3"></path></g></g></g><g node-id="320"><g node-id="341"><g node-id="362"><path d="M 781.80 558.10 L 774.60 473.30 L 525.00 740.90 L 527.40 851.30 L 781.80 558.10 Z" fill="#ffc23a" fill-rule="nonzero" group-id="3,24,45" node-id="118" stroke="none" target-height="378" target-width="256.80005" target-x="525" target-y="473.3"></path></g></g></g><g node-id="321"><g node-id="342"><g node-id="363"><path d="M 774.60 473.30 L 424.20 429.30 L 133.80 707.70 L 525.00 740.90 L 774.60 473.30 Z" fill="#e8a827" fill-rule="nonzero" group-id="4,25,46" node-id="129" stroke="none" target-height="311.59998" target-width="640.80005" target-x="133.80005" target-y="429.3"></path></g></g></g><g node-id="322"><g node-id="343"><g node-id="364"><path d="M 534.60 746.90 L 527.23 741.46 L 517.40 739.30 L 133.80 707.70 L 131.80 730.50 L 511.80 761.70 L 519.00 764.10 L 523.62 769.99 L 524.60 780.90 L 521.40 817.30 L 518.66 827.93 L 513.00 833.30 L 505.80 834.50 L 125.80 803.30 L 124.20 826.10 L 507.80 857.30 L 517.79 856.74 L 525.28 853.17 L 531.00 846.50 L 541.24 829.94 L 547.52 813.94 L 550.31 798.23 L 549.80 782.50 L 544.63 764.34 L 535.80 748.90 L 535.40 748.10 L 534.60 746.90 Z" fill="#ffc23a" fill-rule="nonzero" group-id="5,26,47" node-id="140" stroke="none" target-height="149.59998" target-width="426.10645" target-x="124.19995" target-y="707.7"></path></g></g></g><g node-id="323"><g node-id="344"><g node-id="365"><path d="M 640.60 718.90 L 649.80 633.70 L 257.80 607.30 L 267.40 635.30 L 268.05 650.76 L 265.23 664.19 L 259.12 676.11 L 249.40 686.90 L 640.60 718.90 Z" fill="#e5e5e5" fill-rule="nonzero" group-id="6,27,48" node-id="151" stroke="none" target-height="111.599976" target-width="400.40002" target-x="249.40002" target-y="607.3"></path></g></g></g><g node-id="324"><g node-id="345"><g node-id="366"><path d="M 645.40 686.90 L 644.60 629.30 L 257.00 606.90 L 262.34 614.79 L 264.20 622.10 L 369.10 626.29 L 453.54 633.71 L 520.47 643.60 L 572.60 655.30 L 610.01 667.03 L 632.80 677.58 L 645.40 686.90 Z" fill="#cecdcc" fill-rule="nonzero" group-id="7,28,49" node-id="162" stroke="none" target-height="80" target-width="388.3999" target-x="257" target-y="606.89996"></path></g></g></g><g node-id="325"><g node-id="346"><g node-id="367"><path d="M 899.80 434.10 L 892.60 349.30 L 643.00 616.50 L 645.40 726.90 L 899.80 434.10 Z" fill="#22b1b6" fill-rule="nonzero" group-id="8,29,50" node-id="173" stroke="none" target-height="377.59998" target-width="256.80005" target-x="643" target-y="349.3"></path></g></g></g><g node-id="326"><g node-id="347"><g node-id="368"><path d="M 892.60 349.30 L 542.20 305.30 L 251.80 583.70 L 643.00 616.50 L 892.60 349.30 Z" fill="#119998" fill-rule="nonzero" group-id="9,30,51" node-id="184" stroke="none" target-height="311.20007" target-width="640.80005" target-x="251.80005" target-y="305.3"></path></g></g></g><g node-id="327"><g node-id="348"><g node-id="369"><path d="M 667.80 658.10 L 662.63 639.94 L 653.80 624.50 L 653.40 624.10 L 653.40 623.70 L 652.60 622.90 L 652.20 622.90 L 646.02 617.70 L 635.40 614.90 L 251.80 583.70 L 249.80 606.50 L 629.80 637.30 L 637.00 639.70 L 641.63 645.92 L 642.60 656.90 L 639.40 693.30 L 637.92 701.10 L 635.08 706.01 L 631.00 708.90 L 623.80 710.10 L 243.80 679.30 L 242.20 702.10 L 625.80 733.30 L 635.32 732.59 L 642.86 729.04 L 649.00 722.50 L 659.22 705.95 L 665.51 689.89 L 668.30 674.04 L 667.80 658.10 Z" fill="#22b1b6" fill-rule="nonzero" group-id="10,31,52" node-id="195" stroke="none" target-height="149.59998" target-width="426.10376" target-x="242.19995" target-y="583.7"></path></g></g></g><g node-id="328"><g node-id="349"><g node-id="370"><path d="M 203.80 485.30 L 203.85 500.91 L 200.51 514.23 L 193.93 525.84 L 183.80 536.10 L 573.80 584.10 L 586.20 499.30 L 195.40 456.90 L 203.80 485.30 Z" fill="#e5e5e5" fill-rule="nonzero" group-id="11,32,53" node-id="206" stroke="none" target-height="127.20007" target-width="402.3999" target-x="183.80005" target-y="456.89996"></path></g></g></g><g node-id="329"><g node-id="350"><g node-id="371"><path d="M 195.00 456.50 L 199.89 464.42 L 201.40 472.10 L 306.00 480.47 L 390.06 491.27 L 456.56 503.87 L 508.20 517.70 L 545.30 531.04 L 567.50 542.45 L 579.40 552.10 L 581.40 494.50 L 195.00 456.50 Z" fill="#cecdcc" fill-rule="nonzero" group-id="12,33,54" node-id="217" stroke="none" target-height="95.599976" target-width="386.40002" target-x="195" target-y="456.50006"></path></g></g></g><g node-id="330"><g node-id="351"><g node-id="372"><path d="M 843.80 309.70 L 840.20 224.90 L 580.20 481.70 L 577.80 592.10 L 843.80 309.70 Z" fill="#63a343" fill-rule="nonzero" group-id="13,34,55" node-id="228" stroke="none" target-height="367.20007" target-width="266" target-x="577.80005" target-y="224.89996"></path></g></g></g><g node-id="331"><g node-id="352"><g node-id="373"><path d="M 492.20 166.50 L 190.60 432.90 L 580.20 481.70 L 840.20 224.90 L 492.20 166.50 Z" fill="#5b9140" fill-rule="nonzero" group-id="14,35,56" node-id="239" stroke="none" target-height="315.19995" target-width="649.6" target-x="190.59998" target-y="166.50006"></path></g></g></g><g node-id="332"><g node-id="353"><g node-id="374"><path d="M 178.60 528.10 L 176.20 550.90 L 558.20 597.70 L 567.75 597.44 L 575.42 594.16 L 581.80 587.70 L 592.85 571.45 L 599.77 555.70 L 603.07 540.15 L 603.00 524.50 L 598.83 505.92 L 590.60 490.10 L 590.20 489.70 L 589.40 488.50 L 589.00 488.50 L 582.56 482.84 L 572.60 479.70 L 190.60 432.90 L 187.80 455.70 L 565.80 502.10 L 572.60 504.50 L 577.14 510.71 L 577.80 521.70 L 573.40 558.10 L 570.03 568.65 L 564.20 573.70 L 557.00 574.50 L 178.60 528.10 Z" fill="#63a343" fill-rule="nonzero" group-id="15,36,57" node-id="250" stroke="none" target-height="164.80005" target-width="426.87244" target-x="176.19995" target-y="432.89996"></path></g></g></g><g node-id="333"><g node-id="354"><g node-id="375"><path d="M 637.00 639.70 L 641.63 645.92 L 642.60 656.90 L 639.40 693.30 L 637.92 701.10 L 635.08 706.01 L 631.00 708.90 L 623.80 710.10 L 562.60 705.30 L 562.60 728.10 L 625.80 733.30 L 635.32 732.59 L 642.86 729.04 L 649.00 722.50 L 659.22 705.95 L 665.51 689.89 L 668.30 674.04 L 667.80 658.10 L 662.63 639.94 L 653.80 624.50 L 653.40 624.10 L 653.40 623.70 L 652.60 622.90 L 652.20 622.90 L 646.02 617.70 L 635.40 614.90 L 562.60 608.90 L 562.60 631.70 L 629.80 637.30 L 637.00 639.70 Z" fill="#0f8481" fill-rule="nonzero" group-id="16,37,58" node-id="261" stroke="none" target-height="124.400024" target-width="105.703735" target-x="562.6" target-y="608.89996"></path></g></g></g><g node-id="334"><g node-id="355"><g node-id="376"><path d="M 535.80 748.90 L 535.40 748.10 L 534.60 746.90 L 534.20 746.90 L 527.43 741.51 L 517.40 739.30 L 445.00 733.30 L 445.00 756.10 L 511.80 761.70 L 519.00 764.10 L 523.62 769.99 L 524.60 780.90 L 521.40 817.30 L 518.66 827.93 L 513.00 833.30 L 505.80 834.50 L 445.00 829.30 L 445.00 852.50 L 507.80 857.30 L 517.29 856.77 L 524.83 853.24 L 531.00 846.50 L 541.24 829.94 L 547.52 813.94 L 550.31 798.23 L 549.80 782.50 L 544.63 764.34 L 535.80 748.90 Z" fill="#f9a431" fill-rule="nonzero" group-id="17,38,59" node-id="272" stroke="none" target-height="124" target-width="105.3064" target-x="445" target-y="733.3"></path></g></g></g><g node-id="335"><g node-id="356"><g node-id="377"><path d="M 448.20 464.50 L 445.40 487.30 L 566.20 502.10 L 573.40 504.50 L 577.96 511.04 L 578.60 522.10 L 574.20 558.50 L 570.74 569.00 L 564.60 574.10 L 557.00 574.90 L 440.60 560.50 L 438.60 582.90 L 558.20 597.70 L 568.32 597.46 L 576.23 594.27 L 582.60 588.10 L 594.05 571.60 L 601.20 555.70 L 604.63 540.12 L 604.60 524.50 L 599.99 505.72 L 591.40 490.50 L 591.00 489.70 L 590.20 488.50 L 583.11 482.90 L 573.00 480.10 L 448.20 464.50 Z" fill="#4f823c" fill-rule="nonzero" group-id="18,39,60" node-id="283" stroke="none" target-height="133.19995" target-width="166.03186" target-x="438.59998" target-y="464.50006"></path></g></g></g><g node-id="336"><g node-id="357"><g node-id="378"><path d="M 899.80 434.10 L 897.40 404.10 L 649.80 682.50 L 647.00 725.30 L 899.80 434.10 Z" fill="#0f8481" fill-rule="nonzero" group-id="19,40,61" node-id="294" stroke="none" target-height="321.19995" target-width="252.80005" target-x="647" target-y="404.10004"></path></g></g></g><g node-id="337"><g node-id="358"><g node-id="379"><path d="M 843.80 309.70 L 843.00 282.90 L 591.40 544.90 L 577.80 592.10 L 843.80 309.70 Z" fill="#4f823c" fill-rule="nonzero" group-id="20,41,62" node-id="305" stroke="none" target-height="309.20007" target-width="266" target-x="577.80005" target-y="282.89996"></path></g></g></g><path d="M 629.40 733.30 L 602.60 731.30 L 530.60 810.90 L 527.40 850.50 L 629.40 733.30 Z" fill="#f9a431" fill-rule="nonzero" group-id="21,42,63" node-id="316" stroke="none" target-height="119.20007" target-width="102" target-x="527.4" target-y="731.3"></path></svg>