<?xml version="1.0" standalone="no"?><!DOCTYPE svg PUBLIC "-//W3C//DTD SVG 1.1//EN" "http://www.w3.org/Graphics/SVG/1.1/DTD/svg11.dtd"><svg height="1024" node-id="1" sillyvg="true" template-height="1024" template-width="1024" version="1.1" viewBox="0 0 1024 1024" width="1024" xmlns="http://www.w3.org/2000/svg" xmlns:xlink="http://www.w3.org/1999/xlink"><defs node-id="192"></defs><g node-id="708"><g node-id="755"><g node-id="802"><path d="M 970.70 589.50 L 977.75 583.72 L 981.87 576.53 L 983.30 567.45 L 983.30 509.70 L 981.87 500.62 L 977.75 493.43 L 970.70 487.65 L 524.80 230.05 L 516.30 226.77 L 507.97 226.76 L 499.25 230.05 L 53.35 487.65 L 46.30 493.43 L 42.18 500.62 L 40.75 509.70 L 40.75 567.45 L 42.18 576.53 L 46.30 583.72 L 53.35 589.50 L 499.25 847.10 L 507.97 850.39 L 516.30 850.38 L 524.80 847.10 L 970.70 589.50 Z" fill="#aa7b61" fill-rule="nonzero" group-id="1,48,95" node-id="200" stroke="none" target-height="623.63" target-width="942.5498" target-x="40.75" target-y="226.75989"></path></g></g></g><g node-id="709"><g node-id="756"><g node-id="803"><path d="M 970.70 559.05 L 977.75 553.27 L 981.87 546.08 L 983.30 537.00 L 983.30 517.05 L 981.87 507.97 L 977.75 500.78 L 970.70 495.00 L 524.80 237.40 L 516.30 234.12 L 507.97 234.11 L 499.25 237.40 L 53.35 495.00 L 46.30 500.78 L 42.18 507.97 L 40.75 517.05 L 40.75 537.00 L 42.18 546.08 L 46.30 553.27 L 53.35 559.05 L 499.25 816.65 L 507.97 819.94 L 516.30 819.93 L 524.80 816.65 L 970.70 559.05 Z" fill="#8c644f" fill-rule="nonzero" group-id="2,49,96" node-id="211" stroke="none" target-height="585.8301" target-width="942.5498" target-x="40.75" target-y="234.10986"></path></g></g></g><g node-id="710"><g node-id="757"><g node-id="804"><path d="M 970.70 551.70 L 977.78 545.93 L 981.88 538.85 L 983.30 530.00 L 983.30 509.70 L 981.87 500.62 L 977.75 493.43 L 970.70 487.65 L 524.80 230.05 L 516.30 226.77 L 507.97 226.76 L 499.25 230.05 L 53.35 487.65 L 46.30 493.43 L 42.18 500.62 L 40.75 509.70 L 40.75 530.00 L 42.17 538.85 L 46.27 545.93 L 53.35 551.70 L 499.25 809.30 L 507.97 812.59 L 516.30 812.58 L 524.80 809.30 L 970.70 551.70 Z" fill="#6c9c38" fill-rule="nonzero" group-id="3,50,97" node-id="222" stroke="none" target-height="585.8302" target-width="942.5498" target-x="40.75" target-y="226.75989"></path></g></g></g><g node-id="711"><g node-id="758"><g node-id="805"><path d="M 970.70 536.65 L 977.75 530.87 L 981.87 523.68 L 983.30 514.60 L 983.30 509.70 L 981.87 500.62 L 977.75 493.43 L 970.70 487.65 L 524.80 230.05 L 516.30 226.77 L 507.97 226.76 L 499.25 230.05 L 53.35 487.65 L 46.30 493.43 L 42.18 500.62 L 40.75 509.70 L 40.75 514.60 L 42.18 523.68 L 46.30 530.87 L 53.35 536.65 L 499.25 794.25 L 507.97 797.54 L 516.30 797.53 L 524.80 794.25 L 970.70 536.65 Z" fill="#5a852f" fill-rule="nonzero" group-id="4,51,98" node-id="233" stroke="none" target-height="570.7804" target-width="942.5498" target-x="40.75" target-y="226.75989"></path></g></g></g><g node-id="712"><g node-id="759"><g node-id="806"><path d="M 491.90 842.55 L 499.25 847.10 L 507.97 850.39 L 516.30 850.38 L 524.80 847.10 L 532.15 842.55 L 532.15 747.00 L 491.90 747.00 L 491.90 842.55 Z" fill="#000000" fill-opacity="0.2" fill-rule="nonzero" group-id="5,52,99" node-id="244" stroke="none" target-height="103.390076" target-width="40.25003" target-x="491.9" target-y="747"></path></g></g></g><g node-id="713"><g node-id="760"><g node-id="807"><path d="M 970.70 531.75 L 977.97 525.95 L 982.19 518.75 L 983.65 509.70 L 982.19 500.65 L 977.97 493.45 L 970.70 487.65 L 524.80 230.05 L 516.30 226.77 L 507.97 226.76 L 499.25 230.05 L 53.35 487.65 L 46.08 493.45 L 41.86 500.65 L 40.40 509.70 L 41.86 518.75 L 46.08 525.95 L 53.35 531.75 L 499.25 789.00 L 507.97 792.29 L 516.30 792.28 L 524.80 789.00 L 970.70 531.75 Z" fill="#80b844" fill-rule="nonzero" group-id="6,53,100" node-id="255" stroke="none" target-height="565.5304" target-width="943.25" target-x="40.399902" target-y="226.75989"></path></g></g></g><g node-id="714"><g node-id="761"><g node-id="808"><path d="M 291.00 668.95 L 435.20 585.65 L 429.95 582.50 L 424.70 579.70 L 378.50 546.80 L 229.05 633.25 L 291.00 668.95 Z" fill="#dde6c0" fill-rule="nonzero" group-id="7,54,101" node-id="266" stroke="none" target-height="122.15015" target-width="206.15015" target-x="229.0498" target-y="546.7999"></path></g></g></g><g node-id="715"><g node-id="762"><g node-id="809"><path d="M 684.75 499.90 L 684.75 326.30 L 441.15 467.00 L 441.15 640.60 L 684.75 499.90 Z" fill="#e6caa4" fill-rule="nonzero" group-id="8,55,102" node-id="277" stroke="none" target-height="314.29993" target-width="243.6001" target-x="441.1499" target-y="326.29993"></path></g></g></g><g node-id="716"><g node-id="763"><g node-id="810"><path d="M 331.95 573.40 L 393.20 609.10 L 388.65 612.25 L 441.15 642.70 L 441.15 468.75 L 319.70 324.20 L 197.90 328.40 L 197.90 502.00 L 327.40 576.90 L 331.95 573.40 Z" fill="#ffecc9" fill-rule="nonzero" group-id="9,56,103" node-id="288" stroke="none" target-height="318.5" target-width="243.25" target-x="197.8999" target-y="324.20007"></path></g></g></g><g node-id="717"><g node-id="764"><g node-id="811"><path d="M 693.85 336.10 L 694.73 332.00 L 691.40 325.60 L 565.75 176.15 L 562.60 173.74 L 560.50 173.35 L 434.50 177.20 L 431.00 178.95 L 188.80 321.05 L 323.55 324.20 L 450.60 478.55 L 691.75 337.50 L 693.85 336.10 Z" fill="#46c3bc" fill-rule="nonzero" group-id="10,57,104" node-id="299" stroke="none" target-height="305.19995" target-width="505.9287" target-x="188.7998" target-y="173.34998"></path></g></g></g><g node-id="718"><g node-id="765"><g node-id="812"><path d="M 691.75 337.50 L 693.85 336.10 L 694.73 332.00 L 691.40 325.60 L 566.10 176.50 L 316.55 324.20 L 323.55 324.20 L 450.60 478.55 L 691.75 337.50 Z" fill="#009d94" fill-rule="nonzero" group-id="11,58,105" node-id="310" stroke="none" target-height="302.04993" target-width="378.1787" target-x="316.5498" target-y="176.5"></path></g></g></g><g node-id="719"><g node-id="766"><g node-id="813"><path d="M 316.20 444.95 L 311.65 448.10 L 311.65 505.85 L 316.20 502.70 L 316.20 444.95 Z" fill="#00756f" fill-rule="nonzero" group-id="12,59,106" node-id="321" stroke="none" target-height="60.899902" target-width="4.550049" target-x="311.6499" target-y="444.95007"></path></g></g></g><g node-id="720"><g node-id="767"><g node-id="814"><path d="M 311.65 448.10 L 316.20 444.95 L 218.20 388.25 L 213.65 391.40 L 311.65 448.10 Z" fill="#46c3bc" fill-rule="nonzero" group-id="13,60,107" node-id="332" stroke="none" target-height="59.849976" target-width="102.55005" target-x="213.6499" target-y="388.25"></path></g></g></g><g node-id="721"><g node-id="768"><g node-id="815"><path d="M 213.65 391.40 L 213.65 449.15 L 311.65 505.85 L 311.65 448.10 L 213.65 391.40 Z" fill="#009d94" fill-rule="nonzero" group-id="14,61,108" node-id="343" stroke="none" target-height="114.44995" target-width="98" target-x="213.6499" target-y="391.40002"></path></g></g></g><g node-id="722"><g node-id="769"><g node-id="816"><path d="M 218.55 399.80 L 218.55 446.35 L 306.75 497.45 L 306.75 450.90 L 218.55 399.80 Z" fill="#85cdd2" fill-rule="nonzero" group-id="15,62,109" node-id="354" stroke="none" target-height="97.65015" target-width="88.200195" target-x="218.5498" target-y="399.79993"></path></g></g></g><g node-id="723"><g node-id="770"><g node-id="817"><path d="M 213.65 417.30 L 213.65 423.25 L 311.65 479.95 L 311.65 474.00 L 213.65 417.30 Z" fill="#009d94" fill-rule="nonzero" group-id="16,63,110" node-id="365" stroke="none" target-height="62.650146" target-width="98" target-x="213.6499" target-y="417.29993"></path></g></g></g><g node-id="724"><g node-id="771"><g node-id="818"><path d="M 393.20 609.10 L 393.20 482.40 L 331.95 447.05 L 331.95 573.40 L 393.20 609.10 Z" fill="#00756f" fill-rule="nonzero" group-id="17,64,111" node-id="376" stroke="none" target-height="162.04993" target-width="61.25" target-x="331.94995" target-y="447.04993"></path></g></g></g><g node-id="725"><g node-id="772"><g node-id="819"><path d="M 331.95 447.05 L 327.40 450.20 L 327.40 576.90 L 331.95 573.75 L 331.95 447.05 Z" fill="#e6caa4" fill-rule="nonzero" group-id="18,65,112" node-id="387" stroke="none" target-height="129.85022" target-width="4.550049" target-x="327.3999" target-y="447.04993"></path></g></g></g><g node-id="726"><g node-id="773"><g node-id="820"><path d="M 331.95 447.05 L 327.40 450.20 L 388.65 485.90 L 388.65 612.25 L 393.20 609.10 L 400.20 475.40 L 331.95 447.05 Z" fill="#ffecc9" fill-rule="nonzero" group-id="19,66,113" node-id="398" stroke="none" target-height="165.20007" target-width="72.80005" target-x="327.3999" target-y="447.04993"></path></g></g></g><g node-id="727"><g node-id="774"><g node-id="821"><path d="M 322.15 318.60 L 319.24 316.23 L 316.90 315.80 L 191.25 319.65 L 188.10 321.69 L 188.80 327.35 L 190.98 331.40 L 193.70 334.00 L 196.50 334.70 L 319.70 330.50 L 442.55 476.80 L 447.10 479.95 L 450.60 478.55 L 451.29 474.20 L 448.15 468.05 L 322.15 318.60 Z" fill="#00756f" fill-rule="nonzero" group-id="20,67,114" node-id="409" stroke="none" target-height="164.15015" target-width="263.19238" target-x="188.09912" target-y="315.79993"></path></g></g></g><g node-id="728"><g node-id="775"><g node-id="822"><path d="M 525.50 286.05 L 550.00 315.80 L 550.00 259.45 L 525.50 245.45 L 525.50 286.05 Z" fill="#ffecc9" fill-rule="nonzero" group-id="21,68,115" node-id="420" stroke="none" target-height="70.34985" target-width="24.5" target-x="525.5" target-y="245.45007"></path></g></g></g><g node-id="729"><g node-id="776"><g node-id="823"><path d="M 525.50 253.85 L 525.50 260.50 L 539.15 268.20 L 539.15 261.55 L 525.50 253.85 Z" fill="#e6caa4" fill-rule="nonzero" group-id="22,69,116" node-id="431" stroke="none" target-height="14.350098" target-width="13.649902" target-x="525.5" target-y="253.84998"></path></g></g></g><g node-id="730"><g node-id="777"><g node-id="824"><path d="M 550.00 287.45 L 550.00 280.45 L 538.10 273.80 L 538.10 280.45 L 550.00 287.45 Z" fill="#e6caa4" fill-rule="nonzero" group-id="23,70,117" node-id="442" stroke="none" target-height="13.6501465" target-width="11.899902" target-x="538.1001" target-y="273.79993"></path></g></g></g><g node-id="731"><g node-id="778"><g node-id="825"><path d="M 531.80 283.60 L 531.80 276.95 L 525.50 273.45 L 525.50 280.10 L 531.80 283.60 Z" fill="#e6caa4" fill-rule="nonzero" group-id="24,71,118" node-id="453" stroke="none" target-height="10.149902" target-width="6.2998047" target-x="525.5" target-y="273.45007"></path></g></g></g><g node-id="732"><g node-id="779"><g node-id="826"><path d="M 574.15 302.15 L 574.15 245.45 L 550.00 259.45 L 550.00 316.15 L 574.15 302.15 Z" fill="#e6caa4" fill-rule="nonzero" group-id="25,72,119" node-id="464" stroke="none" target-height="70.69995" target-width="24.149902" target-x="550" target-y="245.45007"></path></g></g></g><g node-id="733"><g node-id="780"><g node-id="827"><path d="M 550.00 275.55 L 550.00 282.20 L 559.80 276.60 L 559.80 269.95 L 550.00 275.55 Z" fill="#c6ae8e" fill-rule="nonzero" group-id="26,73,120" node-id="475" stroke="none" target-height="12.25" target-width="9.799805" target-x="550" target-y="269.95007"></path></g></g></g><g node-id="734"><g node-id="781"><g node-id="828"><path d="M 574.15 282.20 L 574.15 275.55 L 557.70 285.35 L 557.70 292.00 L 574.15 282.20 Z" fill="#c6ae8e" fill-rule="nonzero" group-id="27,74,121" node-id="486" stroke="none" target-height="16.450073" target-width="16.449951" target-x="557.69995" target-y="275.54993"></path></g></g></g><g node-id="735"><g node-id="782"><g node-id="829"><path d="M 574.15 296.20 L 574.15 289.55 L 567.85 293.40 L 567.85 300.05 L 574.15 296.20 Z" fill="#c6ae8e" fill-rule="nonzero" group-id="28,75,122" node-id="497" stroke="none" target-height="10.5" target-width="6.2998047" target-x="567.8501" target-y="289.54993"></path></g></g></g><g node-id="736"><g node-id="783"><g node-id="830"><path d="M 550.00 259.45 L 574.15 245.45 L 550.00 231.10 L 525.50 245.45 L 550.00 259.45 Z" fill="#fff8ec" fill-rule="nonzero" group-id="29,76,123" node-id="508" stroke="none" target-height="28.350098" target-width="48.649902" target-x="525.5" target-y="231.09998"></path></g></g></g><g node-id="737"><g node-id="784"><g node-id="831"><path d="M 550.00 254.20 L 565.40 245.45 L 550.00 236.35 L 534.60 245.45 L 550.00 254.20 Z" fill="#e6caa4" fill-rule="nonzero" group-id="30,77,124" node-id="519" stroke="none" target-height="17.850098" target-width="30.799805" target-x="534.6001" target-y="236.34998"></path></g></g></g><g node-id="738"><g node-id="785"><g node-id="832"><path d="M 550.00 236.35 L 550.00 254.20 L 565.40 245.45 L 550.00 236.35 Z" fill="#ffecc9" fill-rule="nonzero" group-id="31,78,125" node-id="530" stroke="none" target-height="17.850098" target-width="15.399902" target-x="550" target-y="236.34998"></path></g></g></g><g node-id="739"><g node-id="786"><g node-id="833"><path d="M 592.70 664.05 L 592.70 500.95 L 497.85 446.35 L 497.85 609.10 L 592.70 664.05 Z" fill="#ffecc9" fill-rule="nonzero" group-id="32,79,126" node-id="541" stroke="none" target-height="217.69995" target-width="94.84985" target-x="497.8501" target-y="446.34998"></path></g></g></g><g node-id="740"><g node-id="787"><g node-id="834"><path d="M 743.55 415.20 L 668.30 412.75 L 592.70 502.35 L 592.70 665.10 L 743.55 577.95 L 743.55 415.20 Z" fill="#e6caa4" fill-rule="nonzero" group-id="33,80,127" node-id="552" stroke="none" target-height="252.34985" target-width="150.84985" target-x="592.69995" target-y="412.75"></path></g></g></g><g node-id="741"><g node-id="788"><g node-id="835"><path d="M 665.85 412.75 L 710.65 414.15 L 749.15 410.65 L 655.35 355.00 L 652.90 353.95 L 536.35 327.70 L 532.85 329.45 L 493.65 446.00 L 491.68 449.74 L 492.25 452.30 L 493.65 453.00 L 587.10 508.30 L 665.85 412.75 Z" fill="#009d94" fill-rule="nonzero" group-id="34,81,128" node-id="563" stroke="none" target-height="180.59985" target-width="257.4712" target-x="491.6787" target-y="327.70007"></path></g></g></g><g node-id="742"><g node-id="789"><g node-id="836"><path d="M 665.85 412.75 L 670.05 412.75 L 532.85 329.80 L 493.65 446.00 L 491.68 449.74 L 492.25 452.30 L 493.65 453.00 L 587.10 508.30 L 665.85 412.75 Z" fill="#46c3bc" fill-rule="nonzero" group-id="35,82,129" node-id="574" stroke="none" target-height="178.5" target-width="178.3711" target-x="491.6787" target-y="329.79993"></path></g></g></g><g node-id="743"><g node-id="790"><g node-id="837"><path d="M 744.60 419.05 L 746.35 418.70 L 749.50 414.50 L 749.69 410.92 L 747.75 409.95 L 669.70 407.15 L 666.55 409.25 L 588.50 501.65 L 586.35 505.68 L 587.10 508.30 L 589.20 509.00 L 592.00 507.25 L 668.30 416.60 L 744.60 419.05 Z" fill="#00756f" fill-rule="nonzero" group-id="36,83,130" node-id="585" stroke="none" target-height="101.849976" target-width="163.33667" target-x="586.3523" target-y="407.15002"></path></g></g></g><g node-id="744"><g node-id="791"><g node-id="838"><path d="M 712.40 491.85 L 654.30 525.45 L 654.30 629.40 L 712.40 595.80 L 712.40 491.85 Z" fill="#009d94" fill-rule="nonzero" group-id="37,84,131" node-id="596" stroke="none" target-height="137.55017" target-width="58.100098" target-x="654.2998" target-y="491.84998"></path></g></g></g><g node-id="745"><g node-id="792"><g node-id="839"><path d="M 654.30 623.10 L 654.30 629.75 L 712.40 596.15 L 712.40 589.50 L 654.30 623.10 Z" fill="#00756f" fill-rule="nonzero" group-id="38,85,132" node-id="607" stroke="none" target-height="40.25" target-width="58.100098" target-x="654.2998" target-y="589.5"></path></g></g></g><g node-id="746"><g node-id="793"><g node-id="840"><path d="M 654.30 598.60 L 654.30 605.25 L 712.40 571.65 L 712.40 565.00 L 654.30 598.60 Z" fill="#00756f" fill-rule="nonzero" group-id="39,86,133" node-id="618" stroke="none" target-height="40.25" target-width="58.100098" target-x="654.2998" target-y="565"></path></g></g></g><g node-id="747"><g node-id="794"><g node-id="841"><path d="M 654.30 574.10 L 654.30 581.10 L 712.40 547.50 L 712.40 540.50 L 654.30 574.10 Z" fill="#00756f" fill-rule="nonzero" group-id="40,87,134" node-id="629" stroke="none" target-height="40.599854" target-width="58.100098" target-x="654.2998" target-y="540.5"></path></g></g></g><g node-id="748"><g node-id="795"><g node-id="842"><path d="M 654.30 549.95 L 654.30 556.60 L 712.40 523.00 L 712.40 516.35 L 654.30 549.95 Z" fill="#00756f" fill-rule="nonzero" group-id="41,88,135" node-id="640" stroke="none" target-height="40.25" target-width="58.100098" target-x="654.2998" target-y="516.34985"></path></g></g></g><g node-id="749"><g node-id="796"><g node-id="843"><path d="M 712.40 491.85 L 654.30 525.45 L 654.30 532.10 L 712.40 498.50 L 712.40 491.85 Z" fill="#00756f" fill-rule="nonzero" group-id="42,89,136" node-id="651" stroke="none" target-height="40.249878" target-width="58.100098" target-x="654.2998" target-y="491.84998"></path></g></g></g><g node-id="750"><g node-id="797"><g node-id="844"><path d="M 319.70 357.45 L 312.35 353.25 L 305.07 350.49 L 299.05 350.80 L 293.96 352.38 L 289.95 355.70 L 285.67 362.19 L 284.00 373.20 L 285.70 386.30 L 291.00 399.80 L 299.00 411.60 L 307.80 419.05 L 315.15 423.25 L 322.29 425.86 L 327.40 425.70 L 327.75 425.70 L 334.75 422.90 L 339.55 419.03 L 342.66 412.82 L 343.85 403.30 L 342.15 390.20 L 336.85 376.70 L 328.79 364.94 L 319.70 357.45 Z" fill="#00756f" fill-rule="nonzero" group-id="43,90,137" node-id="662" stroke="none" target-height="75.37329" target-width="59.850098" target-x="284" target-y="350.48914"></path></g></g></g><g node-id="751"><g node-id="798"><g node-id="845"><path d="M 315.15 359.55 L 307.80 355.35 L 301.21 352.74 L 295.79 352.75 L 291.00 355.00 L 287.31 359.03 L 284.91 364.87 L 284.00 373.20 L 285.70 386.30 L 291.00 399.80 L 299.00 411.60 L 307.80 419.05 L 315.15 423.25 L 321.97 426.02 L 327.49 426.00 L 332.30 423.60 L 335.97 419.56 L 338.38 413.62 L 339.30 405.05 L 337.62 392.26 L 332.30 378.80 L 324.24 367.04 L 315.15 359.55 Z" fill="#009d94" fill-rule="nonzero" group-id="44,91,138" node-id="673" stroke="none" target-height="73.2771" target-width="55.299805" target-x="284" target-y="352.74463"></path></g></g></g><g node-id="752"><g node-id="799"><g node-id="846"><path d="M 289.25 376.35 L 290.61 387.04 L 294.85 398.05 L 301.29 407.31 L 308.50 413.10 L 314.45 416.60 L 322.16 418.97 L 328.10 416.95 L 332.14 411.58 L 333.70 402.25 L 332.34 391.56 L 328.10 380.55 L 321.64 371.00 L 314.45 365.15 L 308.50 362.00 L 301.04 359.63 L 294.85 361.65 L 290.81 367.02 L 289.25 376.35 Z" fill="#85cdd2" fill-rule="nonzero" group-id="45,92,139" node-id="684" stroke="none" target-height="59.331787" target-width="44.44995" target-x="289.25" target-y="359.63428"></path></g></g></g><g node-id="753"><g node-id="800"><g node-id="847"><path d="M 314.45 422.90 L 314.45 359.20 L 308.85 355.70 L 308.85 419.40 L 314.45 422.90 Z" fill="#009d94" fill-rule="nonzero" group-id="46,93,140" node-id="695" stroke="none" target-height="67.19995" target-width="5.5998535" target-x="308.8501" target-y="355.70007"></path></g></g></g><path d="M 284.00 376.70 L 339.30 408.55 L 339.30 401.90 L 284.00 370.05 L 284.00 376.70 Z" fill="#009d94" fill-rule="nonzero" group-id="47,94,141" node-id="706" stroke="none" target-height="38.5" target-width="55.299805" target-x="284" target-y="370.04993"></path></svg>